<?xml version="1.0" encoding="UTF-8"?>
<svg width="445px" height="408px" viewBox="0 0 445 408" version="1.1" xmlns="http://www.w3.org/2000/svg" xmlns:xlink="http://www.w3.org/1999/xlink">
    <!-- Generator: Sketch 57.1 (83088) - https://sketch.com -->
    <title>logo 2</title>
    <desc>Created with Sketch.</desc>
    <g id="Page-1" stroke="none" stroke-width="1" fill="none" fill-rule="evenodd">
        <g id="logo" fill="#FFFFFF">
            <path d="M209.448126,359.151107 C180.049832,350.692535 167.091974,316.068816 182.609317,289.646298 C195.85595,267.099182 209.100115,244.547116 222.34428,222 C235.593382,244.55949 248.842483,267.121454 262.094053,289.680944 C266.455297,297.102611 268.99257,305.526536 269,314.143489 C269.03206,345.225893 239.359799,367.758161 209.448126,359.151107 M340.761997,19.1708048 C265.708961,147.702563 222.49877,221.700281 222.49877,221.700281 C220.456142,218.200691 135.27118,72.3149365 104.220776,19.1385391 C97.2930688,7.26971612 84.6656915,0 71.0096172,0 L0.00738299202,0 L0,0.0099279155 C84.9708552,217.890443 135.428684,347.27352 135.428684,347.27352 C148.476892,380.725631 178.907124,404.572484 214.424237,407.650138 C255.840361,411.23908 294.113792,386.915687 309.091422,348.507064 C312.175052,340.601961 445,0.00744593662 445,0.00744593662 L445,0 C421.330128,0 397.657794,0 373.987922,0.00496395775 C360.334309,0.00496395775 347.689704,7.30446383 340.761997,19.1708048" id="Shape"></path>
        </g>
    </g>
</svg>