<?xml version="1.0" encoding="UTF-8"?>
<svg width="353px" height="408px" viewBox="0 0 353 408" version="1.1" xmlns="http://www.w3.org/2000/svg" xmlns:xlink="http://www.w3.org/1999/xlink">
    <!-- Generator: Sketch 49.3 (51167) - http://www.bohemiancoding.com/sketch -->
    <title>bitbucket.4ebea66e</title>
    <desc>Created with Sketch.</desc>
    <defs></defs>
    <g id="Page-1" stroke="none" stroke-width="1" fill="none" fill-rule="evenodd">
        <g id="bitbucket.4ebea66e" fill="#FFFFFF" fill-rule="nonzero">
            <path d="M203.75,194.75 C205.083333,205.25 200.875,213.666667 191.125,220 C181.375,226.333333 172.083333,226.833333 163.25,221.5 C156.75,218.666667 152.291667,213.833333 149.875,207 C147.458333,200.166667 147.416667,193.333333 149.75,186.5 C152.083333,179.666667 156.416667,174.833333 162.75,172 C168.75,169 174.791667,168 180.875,169 C186.958333,170 192.291667,172.958333 196.875,177.875 C201.458333,182.791667 203.75,188.416667 203.75,194.75 Z M231.5,189.5 C229.166667,171.666667 219.75,158 203.25,148.5 C186.75,139 170.333333,137.916667 154,145.25 C143.5,149.916667 135.125,157.291667 128.875,167.375 C122.625,177.458333 119.75,188.25 120.25,199.75 C120.916667,214.916667 127.375,227.833333 139.625,238.5 C151.875,249.166667 165.666667,253.833333 181,252.5 C196.166667,251.166667 208.833333,244.166667 219,231.5 C229.166667,218.833333 233.333333,204.833333 231.5,189.5 Z M291.25,54 C287.916667,49.5 283.25,45.7916667 277.25,42.875 C271.25,39.9583333 266.416667,38.125 262.75,37.375 C259.083333,36.625 253.166667,35.5833333 245,34.25 C196.5,26.4166667 149.333333,26.5833333 103.5,34.75 C96.3333333,35.9166667 90.8333333,36.9166667 87,37.75 C83.1666667,38.5833333 78.5833333,40.4166667 73.25,43.25 C67.9166667,46.0833333 63.75,49.6666667 60.75,54 C65.75,58.6666667 72.0833333,62.4583333 79.75,65.375 C87.4166667,68.2916667 93.5416667,70.125 98.125,70.875 C102.708333,71.625 110,72.5833333 120,73.75 C158,78.5833333 195.333333,78.6666667 232,74 C242.5,72.6666667 249.958333,71.6666667 254.375,71 C258.791667,70.3333333 264.833333,68.5416667 272.5,65.625 C280.166667,62.7083333 286.416667,58.8333333 291.25,54 Z M305.5,312.75 C304.166667,317.083333 302.875,323.458333 301.625,331.875 C300.375,340.291667 299.208333,347.291667 298.125,352.875 C297.041667,358.458333 294.666667,364.291667 291,370.375 C287.333333,376.458333 282.5,381.166667 276.5,384.5 C262.166667,392.5 246.375,398.458333 229.125,402.375 C211.875,406.291667 195.041667,408.125 178.625,407.875 C162.208333,407.625 145.416667,406.083333 128.25,403.25 C120.583333,401.916667 113.791667,400.416667 107.875,398.75 C101.958333,397.083333 95.5833333,394.833333 88.75,392 C81.9166667,389.166667 75.8333333,385.541667 70.5,381.125 C65.1666667,376.708333 60.8333333,371.583333 57.5,365.75 C53.3333333,349.75 48.5833333,325.416667 43.25,292.75 L44.75,288.75 L49.25,286.5 C86.4166667,311.166667 128.625,323.5 175.875,323.5 C223.125,323.5 265.416667,311.166667 302.75,286.5 C306.25,287.5 308.25,289.416667 308.75,292.25 C309.25,295.083333 308.833333,298.833333 307.5,303.5 C306.166667,308.166667 305.5,311.25 305.5,312.75 Z M350.75,72.5 C346.416667,100.333333 337.166667,154.916667 323,236.25 C322.166667,241.25 319.916667,245.916667 316.25,250.25 C312.583333,254.583333 308.958333,257.916667 305.375,260.25 C301.791667,262.583333 297.25,265.166667 291.75,268 C249.75,289 198.916667,296.333333 139.25,290 C97.9166667,285.5 65.0833333,273.916667 40.75,255.25 C38.25,253.25 36.125,251.041667 34.375,248.625 C32.625,246.208333 31.2083333,243.291667 30.125,239.875 C29.0416667,236.458333 28.2916667,233.625 27.875,231.375 C27.4583333,229.125 26.9583333,225.833333 26.375,221.5 C25.7916667,217.166667 25.3333333,214.25 25,212.75 C23.5,204.416667 21.2916667,191.916667 18.375,175.25 C15.4583333,158.583333 13.125,145.125 11.375,134.875 C9.625,124.625 7.66666667,112.333333 5.5,98 C3.33333333,83.6666667 1.5,70.5 0,58.5 C0.5,54.1666667 1.95833333,50.125 4.375,46.375 C6.79166667,42.625 9.41666667,39.5 12.25,37 C15.0833333,34.5 18.8333333,32 23.5,29.5 C28.1666667,27 32,25.125 35,23.875 C38,22.625 42,21.0833333 47,19.25 C67.8333333,11.5833333 93.9166667,6.25 125.25,3.25 C188.416667,-2.91666667 244.75,1.25 294.25,15.75 C320.083333,23.4166667 338,33.5833333 348,46.25 C350.666667,49.5833333 352.041667,53.8333333 352.125,59 C352.208333,64.1666667 351.75,68.6666667 350.75,72.5 Z" id="Shape"></path>
        </g>
    </g>
</svg>